<svg width="16" height="20" viewBox="0 0 16 20" fill="none" xmlns="http://www.w3.org/2000/svg">
<path d="M15.1167 9.80495L8.24174 1.05495C8.21243 1.01901 8.17549 0.990048 8.1336 0.970155C8.09171 0.950262 8.04592 0.939941 7.99955 0.939941C7.95317 0.939941 7.90738 0.950262 7.86549 0.970155C7.8236 0.990048 7.78667 1.01901 7.75736 1.05495L0.882358 9.80495C0.836593 9.85975 0.811523 9.92887 0.811523 10.0003C0.811523 10.0717 0.836593 10.1408 0.882358 10.1956L7.75736 18.9456C7.78667 18.9815 7.8236 19.0105 7.86549 19.0304C7.90738 19.0503 7.95317 19.0606 7.99955 19.0606C8.04592 19.0606 8.09171 19.0503 8.1336 19.0304C8.17549 19.0105 8.21243 18.9815 8.24174 18.9456L15.1167 10.1956C15.1625 10.1408 15.1876 10.0717 15.1876 10.0003C15.1876 9.92887 15.1625 9.85975 15.1167 9.80495ZM8.31205 2.15652L14.3824 9.88308L8.31205 12.6409V2.15652ZM7.68705 12.6409L1.61673 9.88308L7.68705 2.15652V12.6409ZM7.68705 13.3284V17.844L2.16361 10.8128L7.68705 13.3284ZM8.31205 13.3284L13.8355 10.8128L8.31205 17.844V13.3284Z" fill="#C4C4C4"/>
</svg>
