<?xml version="1.0" encoding="UTF-8"?>
<!DOCTYPE svg PUBLIC "-//W3C//DTD SVG 1.1//EN" "http://www.w3.org/Graphics/SVG/1.1/DTD/svg11.dtd">
<svg xmlns="http://www.w3.org/2000/svg" version="1.1" width="64px" height="64px" style="shape-rendering:geometricPrecision; text-rendering:geometricPrecision; image-rendering:optimizeQuality; fill-rule:evenodd; clip-rule:evenodd" xmlns:xlink="http://www.w3.org/1999/xlink">
<g><path style="opacity:0.999" fill="#b42b3b" d="M 61.5,10.5 C 57.5,8.5 54.5,5.5 52.5,1.5C 55.6248,0.520558 58.9581,0.187225 62.5,0.5C 62.8128,4.04185 62.4794,7.37518 61.5,10.5 Z"/></g>
<g><path style="opacity:0.813" fill="#2c6bfc" d="M 30.5,5.5 C 31.5,5.5 32.5,5.5 33.5,5.5C 33.5,6.5 33.5,7.5 33.5,8.5C 32.5,8.5 31.5,8.5 30.5,8.5C 30.5,7.5 30.5,6.5 30.5,5.5 Z"/></g>
<g><path style="opacity:1" fill="#fda515" d="M 52.5,1.5 C 54.5,5.5 57.5,8.5 61.5,10.5C 61.3713,12.2161 61.038,13.8828 60.5,15.5C 58.1667,13.5 55.8333,11.5 53.5,9.5C 51.5,7.16667 49.5,4.83333 47.5,2.5C 49.1172,1.962 50.7839,1.62867 52.5,1.5 Z"/></g>
<g><path style="opacity:0.703" fill="#2c6bfd" d="M 26.5,9.5 C 27.5,9.5 28.5,9.5 29.5,9.5C 27.5409,13.9812 24.5409,17.8146 20.5,21C 19.552,21.4828 18.552,21.6495 17.5,21.5C 16.6525,19.5185 16.1525,17.5185 16,15.5C 17.3894,13.7727 19.0561,12.4394 21,11.5C 23.2736,13.564 25.107,12.8973 26.5,9.5 Z"/></g>
<g><path style="opacity:1" fill="#a1d5f0" d="M 53.5,9.5 C 55.8333,11.5 58.1667,13.5 60.5,15.5C 55.3901,26.7466 47.7235,35.7466 37.5,42.5C 34.0078,43.4097 31.0078,45.0764 28.5,47.5C 27.0413,47.4326 25.7079,47.7659 24.5,48.5C 23.7101,47.2058 22.7101,46.0391 21.5,45C 23.3703,43.6338 25.3703,42.4672 27.5,41.5C 28.4742,39.2573 28.8076,36.924 28.5,34.5C 29.2899,33.2058 30.2899,32.0391 31.5,31C 28.8556,27.3891 28.8556,23.8891 31.5,20.5C 30.8229,28.6577 34.4895,32.1577 42.5,31C 47.8311,27.5286 48.8311,23.0286 45.5,17.5C 48.4729,15.1938 51.1395,12.5272 53.5,9.5 Z"/></g>
<g><path style="opacity:0.979" fill="#e5f3fb" d="M 47.5,2.5 C 49.5,4.83333 51.5,7.16667 53.5,9.5C 51.1395,12.5272 48.4729,15.1938 45.5,17.5C 39.8265,14.2203 35.1598,15.2203 31.5,20.5C 28.8556,23.8891 28.8556,27.3891 31.5,31C 30.2899,32.0391 29.2899,33.2058 28.5,34.5C 26.4727,34.3379 24.4727,34.5045 22.5,35C 20.8767,37.0795 19.3767,39.2462 18,41.5C 16.9609,40.2899 15.7942,39.2899 14.5,38.5C 15.2341,37.2921 15.5674,35.9587 15.5,34.5C 17.9236,31.9922 19.5903,28.9922 20.5,25.5C 26.8818,14.8021 35.8818,7.13548 47.5,2.5 Z"/></g>
<g><path style="opacity:1" fill="#f7d043" d="M 45.5,17.5 C 48.8311,23.0286 47.8311,27.5286 42.5,31C 34.4895,32.1577 30.8229,28.6577 31.5,20.5C 35.1598,15.2203 39.8265,14.2203 45.5,17.5 Z"/></g>
<g><path style="opacity:1" fill="#3e4f9a" d="M 42.5,27.5 C 42.5,26.8333 42.5,26.1667 42.5,25.5C 44.0024,23.1707 43.3357,21.8373 40.5,21.5C 38.9582,20.6993 37.2915,20.366 35.5,20.5C 37.8415,18.0325 40.5082,17.8658 43.5,20C 44.0968,21.0617 44.4302,22.2284 44.5,23.5C 44.6598,25.3545 43.9931,26.6879 42.5,27.5 Z"/></g>
<g><path style="opacity:1" fill="#4f76f5" d="M 35.5,20.5 C 37.2915,20.366 38.9582,20.6993 40.5,21.5C 38.9976,23.8293 39.6643,25.1627 42.5,25.5C 42.5,26.1667 42.5,26.8333 42.5,27.5C 36.5,28.8333 34.1667,26.5 35.5,20.5 Z"/></g>
<g><path style="opacity:1" fill="#f1f4fb" d="M 40.5,21.5 C 43.3357,21.8373 44.0024,23.1707 42.5,25.5C 39.6643,25.1627 38.9976,23.8293 40.5,21.5 Z"/></g>
<g><path style="opacity:1" fill="#ad243c" d="M 20.5,25.5 C 19.5903,28.9922 17.9236,31.9922 15.5,34.5C 15.0377,33.1201 14.0377,32.4534 12.5,32.5C 8.55974,34.2061 4.55974,35.3728 0.5,36C 3.83333,32.6667 7.16667,29.3333 10.5,26C 13.7897,24.2652 17.123,24.0985 20.5,25.5 Z"/></g>
<g><path style="opacity:0.692" fill="#2d6afd" d="M 51.5,38.5 C 50.8333,38.5 50.5,38.8333 50.5,39.5C 49.8333,39.5 49.5,39.8333 49.5,40.5C 48.8333,40.5 48.5,40.8333 48.5,41.5C 46.8333,42.5 45.5,43.8333 44.5,45.5C 43.5,45.5 42.5,45.5 41.5,45.5C 41.3505,44.448 41.5172,43.448 42,42.5C 45.8333,38.6667 49.6667,34.8333 53.5,31C 54.8333,30.3333 56.1667,30.3333 57.5,31C 55.6664,33.6633 53.6664,36.1633 51.5,38.5 Z"/></g>
<g><path style="opacity:0.974" fill="#aa253d" d="M 28.5,34.5 C 28.8076,36.924 28.4742,39.2573 27.5,41.5C 25.3703,42.4672 23.3703,43.6338 21.5,45C 22.7101,46.0391 23.7101,47.2058 24.5,48.5C 23.2921,49.2341 21.9587,49.5674 20.5,49.5C 20.1344,48.3054 19.301,47.6387 18,47.5C 12.5828,50.3581 12.0828,49.5247 16.5,45C 15.6266,43.955 14.6266,43.1217 13.5,42.5C 13.4326,41.0413 13.7659,39.7079 14.5,38.5C 15.7942,39.2899 16.9609,40.2899 18,41.5C 19.3767,39.2462 20.8767,37.0795 22.5,35C 24.4727,34.5045 26.4727,34.3379 28.5,34.5 Z"/></g>
<g><path style="opacity:0.687" fill="#2d6bfd" d="M 51.5,38.5 C 52.5,38.5 53.5,38.5 54.5,38.5C 54.1667,42.1667 52.1667,44.1667 48.5,44.5C 48.5,43.5 48.5,42.5 48.5,41.5C 49.1667,41.5 49.5,41.1667 49.5,40.5C 50.1667,40.5 50.5,40.1667 50.5,39.5C 51.1667,39.5 51.5,39.1667 51.5,38.5 Z"/></g>
<g><path style="opacity:0.87" fill="#fec523" d="M 11.5,42.5 C 10.3271,46.355 8.99381,50.1883 7.5,54C 7.83333,54.5 8.16667,55 8.5,55.5C 12.4612,53.9574 16.4612,52.624 20.5,51.5C 15.6156,58.278 8.94897,61.9447 0.5,62.5C 1.05531,54.051 4.72197,47.3844 11.5,42.5 Z"/></g>
<g><path style="opacity:1" fill="#fc9608" d="M 11.5,42.5 C 12.1667,42.5 12.8333,42.5 13.5,42.5C 14.6266,43.1217 15.6266,43.955 16.5,45C 12.0828,49.5247 12.5828,50.3581 18,47.5C 19.301,47.6387 20.1344,48.3054 20.5,49.5C 20.5,50.1667 20.5,50.8333 20.5,51.5C 16.4612,52.624 12.4612,53.9574 8.5,55.5C 8.16667,55 7.83333,54.5 7.5,54C 8.99381,50.1883 10.3271,46.355 11.5,42.5 Z"/></g>
<g><path style="opacity:0.77" fill="#c03144" d="M 37.5,42.5 C 38.9015,45.877 38.7348,49.2103 37,52.5C 33.6667,55.8333 30.3333,59.1667 27,62.5C 27.8103,58.5045 28.977,54.5045 30.5,50.5C 30.5466,48.9623 29.8799,47.9623 28.5,47.5C 31.0078,45.0764 34.0078,43.4097 37.5,42.5 Z"/></g>
<g><path style="opacity:0.807" fill="#2c6bfc" d="M 44.5,45.5 C 45.5,45.5 46.5,45.5 47.5,45.5C 47.5,46.5 47.5,47.5 47.5,48.5C 46.5,48.5 45.5,48.5 44.5,48.5C 44.5,47.5 44.5,46.5 44.5,45.5 Z"/></g>
</svg>
