<?xml version="1.0" encoding="UTF-8"?>
<!DOCTYPE svg PUBLIC "-//W3C//DTD SVG 1.1//EN" "http://www.w3.org/Graphics/SVG/1.1/DTD/svg11.dtd">
<svg xmlns="http://www.w3.org/2000/svg" version="1.1" width="64px" height="64px" style="shape-rendering:geometricPrecision; text-rendering:geometricPrecision; image-rendering:optimizeQuality; fill-rule:evenodd; clip-rule:evenodd" xmlns:xlink="http://www.w3.org/1999/xlink">
<g><path style="opacity:0.838" fill="#9170a0" d="M 56.5,0.5 C 59.8641,-0.127205 61.8641,1.20613 62.5,4.5C 61.2403,19.5884 54.0737,30.9218 41,38.5C 39.5108,43.4565 38.1775,48.4565 37,53.5C 35.4377,56.8601 32.9377,59.1934 29.5,60.5C 28.3527,60.1822 27.5194,59.5156 27,58.5C 26.6667,55.1667 26.3333,51.8333 26,48.5C 22.5,50 20,52.5 18.5,56C 14.1482,58.5888 9.48149,59.5888 4.5,59C 2.27889,50.7161 4.94555,44.5494 12.5,40.5C 13.1667,39.1667 13.8333,37.8333 14.5,36.5C 10.5546,35.5091 6.55461,35.1758 2.5,35.5C 2.46099,32.1903 3.79432,29.5237 6.5,27.5C 12.3904,25.3599 18.3904,23.5266 24.5,22C 29.3104,14.3655 35.6437,8.36554 43.5,4C 47.9191,2.64763 52.2524,1.48096 56.5,0.5 Z"/></g>
<g><path style="opacity:1" fill="#ea7799" d="M 55.5,19.5 C 55.5,18.8333 55.1667,18.5 54.5,18.5C 53.8333,15.8333 52.1667,14.1667 49.5,13.5C 48.8333,13.5 48.5,13.1667 48.5,12.5C 47.7974,10.2843 46.4641,8.45095 44.5,7C 49.1699,4.63113 54.1699,3.46446 59.5,3.5C 59.3944,9.25616 58.0611,14.5895 55.5,19.5 Z"/></g>
<g><path style="opacity:1" fill="#d2dbf0" d="M 44.5,10.5 C 44.2671,12.0618 43.6005,13.3951 42.5,14.5C 38.8333,14.8333 36.8333,16.8333 36.5,20.5C 30.8333,26.1667 25.1667,31.8333 19.5,37.5C 17.7274,36.6857 17.2274,35.3524 18,33.5C 24.8198,24.6814 32.3198,16.5147 40.5,9C 42.3524,8.2274 43.6857,8.7274 44.5,10.5 Z"/></g>
<g><path style="opacity:1" fill="#bdc5e1" d="M 44.5,10.5 C 45.6049,11.6005 46.9382,12.2671 48.5,12.5C 48.5,13.1667 48.8333,13.5 49.5,13.5C 52.1667,14.1667 53.8333,15.8333 54.5,18.5C 55.1667,18.5 55.5,18.8333 55.5,19.5C 53.5025,24.0115 50.5025,27.8449 46.5,31C 40.0408,35.7904 33.8741,40.9571 28,46.5C 24.9621,43.6306 22.1288,40.6306 19.5,37.5C 25.1667,31.8333 30.8333,26.1667 36.5,20.5C 37.7584,26.4592 41.0917,27.9592 46.5,25C 50.0517,19.5593 48.7183,16.0593 42.5,14.5C 43.6005,13.3951 44.2671,12.0618 44.5,10.5 Z"/></g>
<g><path style="opacity:1" fill="#9874a4" d="M 49.5,13.5 C 52.1667,14.1667 53.8333,15.8333 54.5,18.5C 51.8333,17.8333 50.1667,16.1667 49.5,13.5 Z"/></g>
<g><path style="opacity:1" fill="#9175a5" d="M 42.5,14.5 C 48.7183,16.0593 50.0517,19.5593 46.5,25C 41.0917,27.9592 37.7584,26.4592 36.5,20.5C 36.8333,16.8333 38.8333,14.8333 42.5,14.5 Z"/></g>
<g><path style="opacity:1" fill="#aadcf9" d="M 40.5,16.5 C 46.4877,16.664 47.821,19.164 44.5,24C 38.4034,24.1475 37.0701,21.6475 40.5,16.5 Z"/></g>
<g><path style="opacity:1" fill="#f0d9ac" d="M 19.5,25.5 C 21.0281,25.5173 21.5281,26.184 21,27.5C 17.237,33.3353 12.0704,35.002 5.5,32.5C 6.31277,31.1861 7.31277,30.0195 8.5,29C 12.3326,27.9662 15.9993,26.7995 19.5,25.5 Z"/></g>
<g><path style="opacity:1" fill="#a9b1cc" d="M 16.5,38.5 C 19.2971,40.795 21.9638,43.295 24.5,46C 20.9423,48.2321 18.109,47.3988 16,43.5C 15.3603,41.735 15.5269,40.0683 16.5,38.5 Z"/></g>
<g><path style="opacity:1" fill="#f1daad" d="M 35.5,42.5 C 36.3699,46.457 35.8699,50.457 34,54.5C 32.9805,55.6872 31.8139,56.6872 30.5,57.5C 29.343,54.2156 29.1764,50.8823 30,47.5C 31.8119,45.6997 33.6452,44.0331 35.5,42.5 Z"/></g>
<g><path style="opacity:1" fill="#f0ce9a" d="M 14.5,45.5 C 13.5041,45.4142 12.6708,45.7476 12,46.5C 11.5065,48.1341 11.3398,49.8008 11.5,51.5C 14.3933,51.9689 16.3933,50.9689 17.5,48.5C 18.3764,48.3691 19.0431,48.7025 19.5,49.5C 16.9474,54.9104 12.6141,57.2437 6.5,56.5C 5.48566,50.5286 7.65233,46.1952 13,43.5C 13.7172,44.0442 14.2172,44.7109 14.5,45.5 Z"/></g>
<g><path style="opacity:1" fill="#f9eddb" d="M 14.5,45.5 C 15.8333,46.1667 16.8333,47.1667 17.5,48.5C 16.3933,50.9689 14.3933,51.9689 11.5,51.5C 11.3398,49.8008 11.5065,48.1341 12,46.5C 12.6708,45.7476 13.5041,45.4142 14.5,45.5 Z"/></g>
</svg>
