<?xml version="1.0" encoding="UTF-8"?>
<!DOCTYPE svg PUBLIC "-//W3C//DTD SVG 1.1//EN" "http://www.w3.org/Graphics/SVG/1.1/DTD/svg11.dtd">
<svg xmlns="http://www.w3.org/2000/svg" version="1.1" width="64px" height="64px" style="shape-rendering:geometricPrecision; text-rendering:geometricPrecision; image-rendering:optimizeQuality; fill-rule:evenodd; clip-rule:evenodd" xmlns:xlink="http://www.w3.org/1999/xlink">
<g><path style="opacity:0.717" fill="#0e0c0c" d="M 56.5,0.5 C 59.8641,-0.127205 61.8641,1.20613 62.5,4.5C 61.2403,19.5884 54.0737,30.9218 41,38.5C 39.5108,43.4565 38.1775,48.4565 37,53.5C 35.4377,56.8601 32.9377,59.1934 29.5,60.5C 28.3527,60.1822 27.5194,59.5156 27,58.5C 26.6667,55.1667 26.3333,51.8333 26,48.5C 22.5,50 20,52.5 18.5,56C 14.1482,58.5888 9.48149,59.5888 4.5,59C 2.27889,50.7161 4.94555,44.5494 12.5,40.5C 13.1667,39.1667 13.8333,37.8333 14.5,36.5C 10.5546,35.5091 6.55461,35.1758 2.5,35.5C 2.46099,32.1903 3.79432,29.5237 6.5,27.5C 12.3904,25.3599 18.3904,23.5266 24.5,22C 29.3104,14.3655 35.6437,8.36554 43.5,4C 47.9191,2.64763 52.2524,1.48096 56.5,0.5 Z"/></g>
<g><path style="opacity:1" fill="#e27292" d="M 55.5,19.5 C 55.5,18.8333 55.1667,18.5 54.5,18.5C 53.8333,15.8333 52.1667,14.1667 49.5,13.5C 48.8333,13.5 48.5,13.1667 48.5,12.5C 47.7974,10.2843 46.4641,8.45095 44.5,7C 49.063,4.134 54.063,2.96734 59.5,3.5C 59.6482,9.34016 58.3149,14.6735 55.5,19.5 Z"/></g>
<g><path style="opacity:1" fill="#bfcae2" d="M 48.5,12.5 C 48.5,13.1667 48.8333,13.5 49.5,13.5C 52.1667,14.1667 53.8333,15.8333 54.5,18.5C 55.1667,18.5 55.5,18.8333 55.5,19.5C 53.5025,24.0115 50.5025,27.8449 46.5,31C 40.0408,35.7904 33.8741,40.9571 28,46.5C 24.6667,43.1667 21.3333,39.8333 18,36.5C 17.3333,35.5 17.3333,34.5 18,33.5C 24.4604,25.3708 31.2938,17.5374 38.5,10C 39.6086,9.36229 40.7753,8.86229 42,8.5C 44.0591,10.0696 46.2258,11.403 48.5,12.5 Z"/></g>
<g><path style="opacity:1" fill="#281f24" d="M 49.5,13.5 C 52.1667,14.1667 53.8333,15.8333 54.5,18.5C 51.8333,17.8333 50.1667,16.1667 49.5,13.5 Z"/></g>
<g><path style="opacity:1" fill="#131516" d="M 39.5,14.5 C 47.8068,14.2804 50.1402,17.7804 46.5,25C 40.7867,28.0594 37.4533,26.3927 36.5,20C 36.8627,17.8077 37.8627,15.9744 39.5,14.5 Z"/></g>
<g><path style="opacity:1" fill="#a2d6f1" d="M 40.5,16.5 C 46.4877,16.664 47.821,19.164 44.5,24C 38.4034,24.1475 37.0701,21.6475 40.5,16.5 Z"/></g>
<g><path style="opacity:1" fill="#e5d1a0" d="M 19.5,25.5 C 21.0281,25.5173 21.5281,26.184 21,27.5C 17.237,33.3353 12.0704,35.002 5.5,32.5C 6.31277,31.1861 7.31277,30.0195 8.5,29C 12.3326,27.9662 15.9993,26.7995 19.5,25.5 Z"/></g>
<g><path style="opacity:1" fill="#1b1d20" d="M 34.5,26.5 C 36.2252,26.8425 36.7252,27.8425 36,29.5C 34.9614,28.7562 34.4614,27.7562 34.5,26.5 Z"/></g>
<g><path style="opacity:1" fill="#16171a" d="M 30.5,29.5 C 31.9953,29.4148 32.9953,30.0815 33.5,31.5C 31.6043,32.6394 30.6043,31.9728 30.5,29.5 Z"/></g>
<g><path style="opacity:1" fill="#191a1c" d="M 26.5,34.5 C 27.209,33.596 28.209,33.2627 29.5,33.5C 29.6495,34.552 29.4828,35.552 29,36.5C 28.2917,35.6195 27.4584,34.9528 26.5,34.5 Z"/></g>
<g><path style="opacity:1" fill="#1d1f22" d="M 23.5,36.5 C 24.9953,36.4148 25.9953,37.0815 26.5,38.5C 24.6043,39.6394 23.6043,38.9728 23.5,36.5 Z"/></g>
<g><path style="opacity:1" fill="#a0aac1" d="M 16.5,38.5 C 19.2971,40.795 21.9638,43.295 24.5,46C 20.9423,48.2321 18.109,47.3988 16,43.5C 15.3603,41.735 15.5269,40.0683 16.5,38.5 Z"/></g>
<g><path style="opacity:1" fill="#e7d2a1" d="M 35.5,42.5 C 36.3699,46.457 35.8699,50.457 34,54.5C 32.9805,55.6872 31.8139,56.6872 30.5,57.5C 29.343,54.2156 29.1764,50.8823 30,47.5C 31.8119,45.6997 33.6452,44.0331 35.5,42.5 Z"/></g>
<g><path style="opacity:1" fill="#e8c78f" d="M 14.5,45.5 C 11.4098,46.665 10.0764,48.9983 10.5,52.5C 13.6817,52.416 16.015,51.0827 17.5,48.5C 18.3764,48.3691 19.0431,48.7025 19.5,49.5C 16.9474,54.9104 12.6141,57.2437 6.5,56.5C 5.48566,50.5286 7.65233,46.1952 13,43.5C 13.7172,44.0442 14.2172,44.7109 14.5,45.5 Z"/></g>
<g><path style="opacity:1" fill="#f9ebd6" d="M 14.5,45.5 C 15.8333,46.1667 16.8333,47.1667 17.5,48.5C 16.015,51.0827 13.6817,52.416 10.5,52.5C 10.0764,48.9983 11.4098,46.665 14.5,45.5 Z"/></g>
</svg>
